<svg width="68" height="67" viewBox="0 0 68 67" fill="none" xmlns="http://www.w3.org/2000/svg">
<path d="M34.098 0.0413818C25.2278 0.041382 16.721 3.56647 10.4489 9.84118C4.17672 16.1159 0.653076 24.6262 0.653076 33.5C0.653076 42.3737 4.17672 50.8841 10.4489 57.1588C16.721 63.4335 25.2278 66.9586 34.098 66.9586C42.9681 66.9586 51.4749 63.4335 57.7471 57.1588C64.0192 50.8841 67.5429 42.3737 67.5429 33.5C67.5429 24.6262 64.0192 16.1159 57.7471 9.84118C51.4749 3.56647 42.9681 0.041382 34.098 0.0413818ZM48.1299 35.5915L27.6175 47.6718C27.2484 47.8876 26.8261 47.9951 26.3989 47.982C26.0048 47.9914 25.6137 47.9117 25.2547 47.749L25.1017 47.6718C24.7436 47.455 24.4491 47.1474 24.2482 46.7801C24.0473 46.4128 23.947 45.9989 23.9575 45.5803V21.4183C23.9488 21.0086 24.0418 20.6032 24.2279 20.2382C24.4141 19.8733 24.6878 19.5601 25.0245 19.3268C25.3908 19.0625 25.8309 18.9203 26.2824 18.9203C26.734 18.9203 27.1741 19.0625 27.5403 19.3268L47.8957 31.4085C48.2538 31.6252 48.5482 31.9328 48.7492 32.3002C48.9501 32.6675 49.0504 33.0814 49.0398 33.5C49.112 33.8995 49.0641 34.3115 48.9021 34.6838C48.7401 35.0561 48.4714 35.372 48.1299 35.5915Z" fill="white"/>
</svg>
