<svg width="26" height="27" viewBox="0 0 26 27" fill="none" xmlns="http://www.w3.org/2000/svg">
<path d="M12.7715 0.831177C9.42215 0.831177 6.21002 2.16592 3.84171 4.54178C1.47339 6.91764 0.142883 10.14 0.142883 13.5C0.142883 16.8599 1.47339 20.0823 3.84171 22.4582C6.21002 24.834 9.42215 26.1688 12.7715 26.1688C16.1208 26.1688 19.3329 24.834 21.7012 22.4582C24.0695 20.0823 25.4 16.8599 25.4 13.5C25.4 10.14 24.0695 6.91764 21.7012 4.54178C19.3329 2.16592 16.1208 0.831177 12.7715 0.831177ZM18.0698 14.2919L10.3245 18.866C10.1851 18.9477 10.0257 18.9884 9.86433 18.9834C9.71554 18.987 9.56786 18.9568 9.4323 18.8952L9.37452 18.866C9.2393 18.7839 9.12812 18.6674 9.05225 18.5284C8.97638 18.3893 8.93851 18.2326 8.94249 18.0741V8.92535C8.93921 8.77024 8.97429 8.61672 9.0446 8.47853C9.1149 8.34034 9.21824 8.22177 9.34538 8.13343C9.48367 8.03336 9.64985 7.97951 9.82036 7.97951C9.99086 7.97951 10.157 8.03336 10.2953 8.13343L17.9814 12.708C18.1166 12.7901 18.2278 12.9066 18.3036 13.0457C18.3795 13.1847 18.4174 13.3415 18.4134 13.5C18.4407 13.6513 18.4226 13.8073 18.3614 13.9482C18.3002 14.0892 18.1988 14.2088 18.0698 14.2919Z" fill="white"/>
</svg>
